<svg xmlns="http://www.w3.org/2000/svg" width="16" height="16"><g fill-rule="evenodd"><path d="M8 15A7 7 0 108 1a7 7 0 000 14" fill="#d52735"/><path d="M8 14.5a6.5 6.5 0 100-13 6.5 6.5 0 000 13" fill="#f25056"/><path d="M5.073 4.478c-.15 0-.299.058-.412.171l-.01.01a.586.586 0 000 .827l2.513 2.513-2.514 2.517a.583.583 0 000 .823l.01.013a.586.586 0 00.826 0L8 8.838l2.514 2.514a.586.586 0 00.826 0l.01-.013a.583.583 0 000-.823L8.836 7.999l2.514-2.513a.586.586 0 000-.826l-.01-.01a.586.586 0 00-.826 0L8 7.162 5.486 4.65a.584.584 0 00-.413-.171z" fill="#9f1d2b"/></g></svg>