<svg xmlns="http://www.w3.org/2000/svg" xmlns:xlink="http://www.w3.org/1999/xlink" width="16" height="16"><defs><linearGradient gradientTransform="translate(3.165 -12.822)" xlink:href="#a" id="b" x1="49.195" y1="515.033" x2="1067.241" y2="516.85" gradientUnits="userSpaceOnUse"/><linearGradient id="a"><stop offset="0" stop-color="#d300dc"/><stop offset="1" stop-color="#8700ff"/></linearGradient></defs><path d="M8.09 15.164a7 7 0 100-14 7 7 0 000 14" fill="#b800d2" fill-rule="evenodd"/><path d="M565.943-11.37c283.64 0 513.577 229.942 513.577 513.583 0 283.642-229.936 513.579-513.577 513.579-283.646 0-513.583-229.937-513.583-513.58 0-283.64 229.937-513.582 513.583-513.582" fill="url(#b)" fill-rule="evenodd" transform="matrix(.01266 0 0 -.01266 .928 14.52)"/><path d="M6.078 4.375h4.441c.591 0 1.075.484 1.075 1.075v4.441L6.078 4.375zm3.861 7.25H5.481a1.078 1.078 0 01-1.075-1.075V6.09l5.533 5.534" fill-rule="evenodd" fill="#432f52"/></svg>